<?xml version="1.0" encoding="UTF-8"?>
<svg width="424px" height="117px" viewBox="0 0 424 117" version="1.1" xmlns="http://www.w3.org/2000/svg" xmlns:xlink="http://www.w3.org/1999/xlink">
    <!-- Generator: Sketch 48.2 (47327) - http://www.bohemiancoding.com/sketch -->
    <title>readable-logo</title>
    <desc>Created with Sketch.</desc>
    <defs></defs>
    <g id="Page-1" stroke="none" stroke-width="1" fill="none" fill-rule="evenodd">
        <g id="readable-logo">
            <path d="M23.904,68.656 L21.6,77.296 C19.392,76.624 18.192,76.384 16.704,76.384 C14.256,76.384 12.384,77.248 10.992,78.976 C10.08,80.128 9.744,81.136 9.552,83.248 L9.552,90.736 C9.552,93.808 9.648,95.632 9.936,97.936 L0,97.936 C0.288,95.536 0.384,93.808 0.384,90.688 L0.384,75.904 C0.384,72.4 0.288,70.72 0,68.656 L9.552,68.656 L9.552,72.448 C11.904,69.376 14.784,68.08 19.152,68.08 C20.688,68.08 21.648,68.176 23.904,68.656 Z M55.968,85.984 L34.368,85.984 C34.848,89.872 37.104,91.936 40.896,91.936 C42.816,91.936 44.496,91.312 45.744,90.16 C46.464,89.488 46.8,88.96 47.184,87.712 L55.536,90.064 C54.432,92.56 53.712,93.664 52.368,95.008 C49.632,97.696 45.792,99.088 41.04,99.088 C36.336,99.088 32.64,97.744 29.904,95.008 C27.072,92.128 25.536,88.048 25.536,83.296 C25.536,73.792 31.632,67.504 40.8,67.504 C48.288,67.504 53.52,71.584 55.2,78.736 C55.584,80.272 55.776,82.288 55.92,85.024 C55.92,85.216 55.92,85.504 55.968,85.984 Z M34.512,79.36 L46.848,79.36 C46.176,76.288 44.112,74.656 40.8,74.656 C37.392,74.656 35.328,76.192 34.512,79.36 Z M79.056,78.976 L79.056,77.872 C79.056,75.568 77.664,74.512 74.496,74.512 C71.424,74.512 69.792,75.52 69.072,77.872 L59.904,76.384 C60.864,73.552 61.92,72.016 63.936,70.576 C66.528,68.752 70.08,67.84 74.736,67.84 C78.288,67.84 81.744,68.512 83.616,69.52 C86.688,71.2 88.032,73.84 88.032,78.16 L88.032,91.12 C88.032,94.048 88.128,95.776 88.368,97.936 L79.056,97.936 L79.056,95.728 C76.368,97.792 73.68,98.608 69.744,98.608 C66.096,98.608 63.36,97.744 61.44,95.968 C59.712,94.384 58.8,92.08 58.8,89.44 C58.8,86.416 60,84.016 62.304,82.432 C64.752,80.704 67.968,79.696 72.288,79.312 C74.16,79.12 75.6,79.072 79.056,78.976 Z M79.056,86.464 L79.056,85.12 C74.784,85.216 72.72,85.456 70.752,86.08 C69.024,86.656 67.968,87.856 67.968,89.248 C67.968,90.976 69.408,91.984 71.904,91.984 C73.872,91.984 76.032,91.264 77.328,90.16 C78.432,89.2 79.056,87.904 79.056,86.464 Z M115.872,97.936 L115.872,96.4 C115.872,96.112 115.872,95.776 115.92,95.344 C112.704,97.936 110.256,98.8 106.224,98.8 C97.488,98.8 92.208,92.944 92.208,83.248 C92.208,78.256 93.648,74.272 96.336,71.536 C98.784,69.088 102.144,67.792 106.08,67.792 C109.968,67.792 112.752,68.8 115.92,71.344 C115.872,70.624 115.872,70.192 115.872,69.52 L115.872,65.536 C115.872,62.176 115.776,60.112 115.488,58 L125.328,58 C125.04,60.016 124.944,62.32 124.944,65.536 L124.944,90.4 C124.944,93.616 125.04,95.584 125.328,97.936 L115.872,97.936 Z M108.336,75.136 C104.16,75.136 101.52,78.256 101.52,83.296 C101.52,86.032 102.288,88.24 103.728,89.632 C104.88,90.784 106.608,91.456 108.384,91.456 C112.656,91.456 115.776,87.904 115.776,83.152 C115.776,78.496 112.704,75.136 108.336,75.136 Z M149.616,78.976 L149.616,77.872 C149.616,75.568 148.224,74.512 145.056,74.512 C141.984,74.512 140.352,75.52 139.632,77.872 L130.464,76.384 C131.424,73.552 132.48,72.016 134.496,70.576 C137.088,68.752 140.64,67.84 145.296,67.84 C148.848,67.84 152.304,68.512 154.176,69.52 C157.248,71.2 158.592,73.84 158.592,78.16 L158.592,91.12 C158.592,94.048 158.688,95.776 158.928,97.936 L149.616,97.936 L149.616,95.728 C146.928,97.792 144.24,98.608 140.304,98.608 C136.656,98.608 133.92,97.744 132,95.968 C130.272,94.384 129.36,92.08 129.36,89.44 C129.36,86.416 130.56,84.016 132.864,82.432 C135.312,80.704 138.528,79.696 142.848,79.312 C144.72,79.12 146.16,79.072 149.616,78.976 Z M149.616,86.464 L149.616,85.12 C145.344,85.216 143.28,85.456 141.312,86.08 C139.584,86.656 138.528,87.856 138.528,89.248 C138.528,90.976 139.968,91.984 142.464,91.984 C144.432,91.984 146.592,91.264 147.888,90.16 C148.992,89.2 149.616,87.904 149.616,86.464 Z M173.424,97.936 L164.016,97.936 C164.304,95.632 164.4,93.616 164.4,90.4 L164.4,65.536 C164.4,62.032 164.304,60.304 164.016,58 L173.76,58 C173.52,60.304 173.424,62.032 173.424,65.536 L173.424,69.568 C173.424,70.288 173.424,70.72 173.376,71.392 C176.208,68.896 179.28,67.792 183.264,67.792 C192,67.792 197.088,73.36 197.088,82.864 C197.088,88 195.6,92.128 192.816,95.056 C190.32,97.552 187.056,98.8 182.832,98.8 C178.848,98.8 176.496,97.984 173.376,95.392 C173.376,95.536 173.424,96.16 173.424,96.4 L173.424,97.936 Z M187.776,82.96 C187.776,78.064 185.232,75.088 181.008,75.088 C176.64,75.088 173.52,78.448 173.52,83.104 C173.52,87.856 176.688,91.456 180.816,91.456 C184.992,91.456 187.776,88.048 187.776,82.96 Z M200.928,58 L210.96,58 C210.672,60.016 210.576,61.984 210.576,65.248 L210.576,90.688 C210.576,93.568 210.672,95.392 210.96,97.936 L200.928,97.936 C201.216,95.776 201.312,94.144 201.312,90.688 L201.312,65.248 C201.312,61.84 201.216,59.824 200.928,58 Z M245.184,85.984 L223.584,85.984 C224.064,89.872 226.32,91.936 230.112,91.936 C232.032,91.936 233.712,91.312 234.96,90.16 C235.68,89.488 236.016,88.96 236.4,87.712 L244.752,90.064 C243.648,92.56 242.928,93.664 241.584,95.008 C238.848,97.696 235.008,99.088 230.256,99.088 C225.552,99.088 221.856,97.744 219.12,95.008 C216.288,92.128 214.752,88.048 214.752,83.296 C214.752,73.792 220.848,67.504 230.016,67.504 C237.504,67.504 242.736,71.584 244.416,78.736 C244.8,80.272 244.992,82.288 245.136,85.024 C245.136,85.216 245.136,85.504 245.184,85.984 Z M223.728,79.36 L236.064,79.36 C235.392,76.288 233.328,74.656 230.016,74.656 C226.608,74.656 224.544,76.192 223.728,79.36 Z" id="readable" fill="#FFFFFF"></path>
            <g id="studying" transform="translate(350.000000, 0.000000)" fill-rule="nonzero">
                <path d="M38.000085,8 L25.999915,8 C24.8953964,8 24,7.10433896 24,6 C24,4.89566104 24.895623,4 25.999915,4 L38.000085,4 C39.1046036,4 40,4.89566104 40,6 C40,7.10433896 39.1046036,8 38.000085,8 Z" id="Shape" fill="#C7CFE2"></path>
                <path d="M46.9998867,115 C45.8953837,115 45,114.088751 45,112.965191 L45,102.790687 C45,102.255187 44.7863495,101.731443 44.4141037,101.352006 L41.5858963,98.4737206 C40.8047012,97.6788843 40.8047012,96.390272 41.5858963,95.5961272 C42.3670915,94.8012909 43.6329085,94.8012909 44.4141037,95.5961272 L47.242311,98.4746427 C48.3760408,99.6281697 49,101.160443 49,102.790917 L49,112.965422 C49,114.088751 48.1043897,115 46.9998867,115 Z" id="Shape" fill="#AFB9D2"></path>
                <path d="M65.9998764,117 L25.999897,117 C24.8953884,117 24,116.10439 24,115.000113 L24,111.000113 C24,109.89561 24.8956149,109 25.999897,109 L66.000103,109 C67.1046116,109 68,109.89561 68,111.000113 L68,115.000113 C68,116.104843 67.1043851,117 65.9998764,117 Z" id="Shape" fill="#C7CFE2"></path>
                <g id="Group" transform="translate(24.000000, 4.000000)" fill="#AFB9D2">
                    <path d="M14.3799265,110.984947 L14.3799265,106.954614 C14.3799265,105.841735 15.2904363,104.939333 16.413598,104.939333 L2.17720588,104.939333 C1.05404412,104.939333 0.143534314,105.841735 0.143534314,106.954614 L0.143534314,110.984947 C0.143534314,112.097826 1.05427451,113 2.17720588,113 L16.413598,113 C15.2902059,113 14.3799265,112.097826 14.3799265,110.984947 Z" id="Shape"></path>
                    <path d="M44.8884559,52.545 C44.1882941,52.545 43.5079461,52.1868242 43.1296422,51.5451212 L14.6566275,3.18134949 C14.0905539,2.22005051 14.4181716,0.986181818 15.3885833,0.425290909 C16.3617598,-0.1356 17.6040343,0.191072727 18.1701078,1.15054545 L46.6431225,49.5145455 C47.2091961,50.4758444 46.8815784,51.7097131 45.9111667,52.270604 C45.5883873,52.4566545 45.2361176,52.545 44.8884559,52.545 Z" id="Shape"></path>
                </g>
                <path d="M37.9983898,103 C37.6136836,103 37.2239929,102.888956 36.881201,102.65501 C35.9652014,102.032752 35.7250432,100.781851 36.3431107,99.86089 L69.6396869,50.2432507 L43.3430428,4.87425216 L39.1094614,7.71465993 C38.1877976,8.33190195 36.9482641,8.08017118 36.3358606,7.1562463 C35.7236838,6.23140935 35.9715452,4.98119214 36.8907167,4.36486219 L42.8908203,0.339450068 C43.3478006,0.0316271177 43.912399,-0.0750848383 44.4513956,0.0532887327 C44.9883531,0.178014032 45.4503178,0.5209516 45.7276325,0.9997873 L73.7275874,49.3074689 C74.1143328,49.9757867 74.0878248,50.8073647 73.6573525,51.4480925 L39.6575205,102.11347 C39.2707752,102.689441 38.6409263,103 37.9983898,103 Z" id="Shape" fill="#C7CFE2"></path>
                <g id="Group" transform="translate(35.000000, 3.000000)" fill="#707487">
                    <ellipse id="Oval" cx="33.8949329" cy="52.9478848" rx="2.98729878" ry="3.05142387"></ellipse>
                    <ellipse id="Oval" cx="3.02565244" cy="3.10719342" rx="2.98729878" ry="3.05142387"></ellipse>
                </g>
                <g id="Group" transform="translate(2.000000, 0.000000)" fill="#C7CFE2">
                    <path d="M22.7969213,0.00135849057 L18.1086404,0.00135849057 C17.1145056,0.00135849057 16.2664045,0.70754717 16.1030955,1.67139623 L14.3529944,11.9932075 L26.5527978,11.9932075 L24.8026966,1.67139623 C24.638927,0.707773585 23.7905955,0.00135849057 22.7969213,0.00135849057 Z" id="Shape"></path>
                    <path d="M28.5859831,15.9907925 L12.3195787,15.9907925 C0.119775281,24.3183396 0.119775281,35.9773585 0.119775281,35.9773585 L40.7857865,35.9773585 C40.7857865,35.9773585 40.7857865,24.3187925 28.5859831,15.9907925 Z" id="Shape"></path>
                </g>
                <g id="Group" transform="translate(0.000000, 12.000000)" fill="#AFB9D2">
                    <path d="M14.4196154,4.33536207 C2.19692308,12.8962241 2.19692308,24.8818966 2.19692308,24.8818966 L14.4196154,24.8818966 C14.4196154,24.8818966 14.4196154,12.8962241 21.1421538,4.33512931 C21.1419231,4.33536207 14.4196154,4.33536207 14.4196154,4.33536207 Z" id="Shape"></path>
                    <path d="M30.7165385,4.33536207 L14.4196154,4.33536207 L14.4196154,2.28080172 C14.4196154,1.14610345 15.3316154,0.226241379 16.4566154,0.226241379 L28.6793077,0.226241379 C29.8043077,0.226241379 30.7163077,1.14633621 30.7163077,2.28080172 L30.7163077,4.33536207 L30.7165385,4.33536207 Z" id="Shape"></path>
                    <path d="M42.9392308,26.9366897 L2.19692308,26.9366897 C1.07192308,26.9366897 0.159923077,26.0168276 0.159923077,24.8821293 C0.159923077,23.747431 1.07215385,22.827569 2.19692308,22.827569 L42.9392308,22.827569 C44.0642308,22.827569 44.9762308,23.7476638 44.9762308,24.8821293 C44.9762308,26.0170603 44.064,26.9366897 42.9392308,26.9366897 Z" id="Shape"></path>
                </g>
                <g id="Group" transform="translate(0.000000, 12.000000)" fill="#8F96AC">
                    <path d="M12.045449,24.8818966 C12.045449,23.7471983 12.9328571,22.8273362 14.0270204,22.8273362 L2.13714286,22.8273362 C1.0427551,22.8273362 0.155571429,23.747431 0.155571429,24.8818966 C0.155571429,26.0163621 1.04297959,26.9364569 2.13714286,26.9364569 L14.0272449,26.936457 C12.9326327,26.9366897 12.045449,26.0165949 12.045449,24.8818966 Z" id="Shape"></path>
                    <path d="M21.9539796,0.226008621 L16.0090408,0.226008621 C14.9146531,0.226008621 14.0274694,1.14610345 14.0274694,2.28056897 L14.0274694,4.33512931 L19.9724082,4.33512931 L19.9724082,2.28056897 C19.9721837,1.14587069 20.8593673,0.226008621 21.9539796,0.226008621 Z" id="Shape"></path>
                </g>
                <path d="M23,0 L19.576106,0 C18.6294962,0 17.8219388,0.706668681 17.6664369,1.67117287 L16,12 L21.808184,12 L22.3635167,1.67117287 C22.4152776,0.70689525 22.6846096,0 23,0 Z" id="Shape" fill="#AFB9D2"></path>
                <circle id="Oval" fill="#707487" cx="42" cy="96" r="3"></circle>
            </g>
            <path d="M270.792,78.528 L270.792,77.424 C270.792,75.12 269.4,74.064 266.232,74.064 C263.16,74.064 261.528,75.072 260.808,77.424 L251.64,75.936 C252.6,73.104 253.656,71.568 255.672,70.128 C258.264,68.304 261.816,67.392 266.472,67.392 C270.024,67.392 273.48,68.064 275.352,69.072 C278.424,70.752 279.768,73.392 279.768,77.712 L279.768,90.672 C279.768,93.6 279.864,95.328 280.104,97.488 L270.792,97.488 L270.792,95.28 C268.104,97.344 265.416,98.16 261.48,98.16 C257.832,98.16 255.096,97.296 253.176,95.52 C251.448,93.936 250.536,91.632 250.536,88.992 C250.536,85.968 251.736,83.568 254.04,81.984 C256.488,80.256 259.704,79.248 264.024,78.864 C265.896,78.672 267.336,78.624 270.792,78.528 Z M270.792,86.016 L270.792,84.672 C266.52,84.768 264.456,85.008 262.488,85.632 C260.76,86.208 259.704,87.408 259.704,88.8 C259.704,90.528 261.144,91.536 263.64,91.536 C265.608,91.536 267.768,90.816 269.064,89.712 C270.168,88.752 270.792,87.456 270.792,86.016 Z M295.032,106.176 L285.192,106.176 C285.432,104.112 285.576,101.712 285.576,99.168 L285.576,75.744 C285.576,72.624 285.48,70.656 285.192,68.208 L294.648,68.208 L294.648,69.84 C294.648,70.128 294.6,70.512 294.6,70.752 C297.48,68.352 300.456,67.344 304.44,67.344 C308.664,67.344 312.12,68.592 314.616,71.04 C317.16,73.584 318.456,77.376 318.456,82.224 C318.456,87.12 317.016,91.104 314.28,93.84 C311.832,96.288 308.328,97.632 304.392,97.632 C302.136,97.632 299.688,97.152 297.912,96.384 C296.664,95.856 295.944,95.328 294.6,94.176 C294.6,94.608 294.6,95.232 294.648,95.904 L294.648,99.216 C294.648,101.904 294.744,104.112 295.032,106.176 Z M302.28,90.384 C304.104,90.384 305.736,89.76 306.984,88.56 C308.328,87.264 309.096,85.056 309.096,82.32 C309.096,77.424 306.504,74.592 301.992,74.592 C298.008,74.592 294.744,78.096 294.744,82.464 C294.744,86.976 297.96,90.384 302.28,90.384 Z M332.136,106.176 L322.296,106.176 C322.536,104.112 322.68,101.712 322.68,99.168 L322.68,75.744 C322.68,72.624 322.584,70.656 322.296,68.208 L331.752,68.208 L331.752,69.84 C331.752,70.128 331.704,70.512 331.704,70.752 C334.584,68.352 337.56,67.344 341.544,67.344 C345.768,67.344 349.224,68.592 351.72,71.04 C354.264,73.584 355.56,77.376 355.56,82.224 C355.56,87.12 354.12,91.104 351.384,93.84 C348.936,96.288 345.432,97.632 341.496,97.632 C339.24,97.632 336.792,97.152 335.016,96.384 C333.768,95.856 333.048,95.328 331.704,94.176 C331.704,94.608 331.704,95.232 331.752,95.904 L331.752,99.216 C331.752,101.904 331.848,104.112 332.136,106.176 Z M339.384,90.384 C341.208,90.384 342.84,89.76 344.088,88.56 C345.432,87.264 346.2,85.056 346.2,82.32 C346.2,77.424 343.608,74.592 339.096,74.592 C335.112,74.592 331.848,78.096 331.848,82.464 C331.848,86.976 335.064,90.384 339.384,90.384 Z" id="app" fill="#9CFFE9"></path>
        </g>
    </g>
</svg>